<svg width="98" height="32" viewBox="0 0 98 32" fill="none" xmlns="http://www.w3.org/2000/svg">
  <g clip-path="url(#clip0_18_1340)">
    <path d="M16.0208 0C7.17 0 0 7.17 0 16.0208C0 24.8717 7.17 32.0417 16.0208 32.0417C24.8717 32.0417 32.0417 24.8717 32.0417 16.0208C32.0417 7.17 24.8717 0 16.0208 0ZM16.0208 29.7052C8.46198 29.7052 2.33646 23.5797 2.33646 16.0208C2.33646 8.46198 8.46198 2.33646 16.0208 2.33646C23.5797 2.33646 29.7052 8.46198 29.7052 16.0208C29.7052 23.5797 23.5797 29.7052 16.0208 29.7052Z" fill="white"/>
    <path d="M16.0209 7.00937C11.0792 7.00937 7.00937 11.0792 7.00937 16.0209C7.00937 20.9626 11.0792 25.0324 16.0209 25.0324C20.9626 25.0324 25.0324 20.9626 25.0324 16.0209C25.0324 11.0792 20.9626 7.00937 16.0209 7.00937ZM16.0209 22.6959C12.3682 22.6959 9.34583 19.6736 9.34583 16.0209C9.34583 12.3682 12.3682 9.34583 16.0209 9.34583C19.6736 9.34583 22.6959 12.3682 22.6959 16.0209C22.6959 19.6736 19.6736 22.6959 16.0209 22.6959Z" fill="white"/>
    <path d="M16.0208 14.0182C14.9193 14.0182 14.0182 14.9193 14.0182 16.0208C14.0182 17.1223 14.9193 18.0234 16.0208 18.0234C17.1223 18.0234 18.0234 17.1223 18.0234 16.0208C18.0234 14.9193 17.1223 14.0182 16.0208 14.0182Z" fill="white"/>
  </g>
  <path d="M43.1043 25.7257C44.0517 25.7257 44.8898 25.5526 45.6185 25.2064C46.3473 24.842 46.903 24.2955 47.2856 23.5667V25.3977H51.1116V10.4763H47.0123V19.1941C47.0123 20.0504 46.7572 20.7428 46.2471 21.2711C45.7369 21.7812 45.0811 22.0363 44.2794 22.0363C43.4778 22.0363 42.8219 21.7812 42.3118 21.2711C41.8016 20.7428 41.5466 20.0504 41.5466 19.1941V10.4763H37.4473V19.5221C37.4473 21.3804 37.9301 22.8835 38.8957 24.0313C39.8795 25.1609 41.2824 25.7257 43.1043 25.7257Z" fill="white"/>
  <path d="M54.1077 9.1372H58.207V5.0379H54.1077V9.1372ZM54.1077 25.3977H58.207V10.4763H54.1077V25.3977Z" fill="white"/>
  <path d="M63.0104 25.3977H67.1097V14.029H70.3072V10.4763H67.1097V10.2577C67.1097 8.92768 67.884 8.26268 69.4326 8.26268C69.6877 8.26268 69.9883 8.29001 70.3345 8.34467V4.8466C69.9154 4.75551 69.4326 4.70996 68.8861 4.70996C67.0277 4.70996 65.5793 5.19277 64.5408 6.15838C63.5205 7.12399 63.0104 8.49042 63.0104 10.2577V10.4763H60.4962V14.029H63.0104V25.3977Z" fill="white"/>
  <path d="M72.4157 25.3977H76.515V17.3631C76.515 16.2517 76.8247 15.3955 77.4442 14.7942C78.0636 14.1748 78.8744 13.865 79.8764 13.865H81.1609V10.3123H80.2864C79.3754 10.3123 78.5647 10.4854 77.8541 10.8316C77.1618 11.1595 76.6243 11.7881 76.2417 12.7172V10.4763H72.4157V25.3977Z" fill="white"/>
  <path d="M85.2805 31.4647C88.0133 31.4647 89.9901 29.9069 91.2108 26.7915L97.6057 10.4763H93.2058L89.6804 20.0686L86.155 10.4763H81.7551L87.6307 25.3977L87.3574 26.0263C87.1388 26.5182 86.8564 26.9555 86.5103 27.3381C86.1641 27.7207 85.5902 27.912 84.7885 27.912C84.1327 27.912 83.5132 27.8209 82.9302 27.6387V31.0001C83.2399 31.1641 83.5952 31.2825 83.996 31.3554C84.4151 31.4282 84.8432 31.4647 85.2805 31.4647Z" fill="white"/>
  <defs>
    <clipPath id="clip0_18_1340">
      <rect width="31.0417" height="31.0417" fill="white" transform="translate(0.5)"/>
    </clipPath>
  </defs>
</svg> 