<svg width="57" height="40" viewBox="0 0 57 40" fill="none" xmlns="http://www.w3.org/2000/svg">
<path d="M21.2832 4.11084H36.386V27.5891H21.2832V4.11084Z" fill="#FF5F00"/>
<path d="M11.0712 39.4065V36.9178C11.0712 35.9635 10.3998 35.3415 9.24903 35.3415C8.67375 35.3415 8.05042 35.5074 7.61884 36.0467C7.28337 35.5903 6.80397 35.3415 6.08475 35.3415C5.60513 35.3415 5.12595 35.4658 4.74221 35.9221V35.4244H3.73535V39.4065H4.74221V37.208C4.74221 36.503 5.17378 36.171 5.84516 36.171C6.51611 36.171 6.85202 36.5444 6.85202 37.208V39.4065H7.85887V37.208C7.85887 36.503 8.33806 36.171 8.96139 36.171C9.63277 36.171 9.96825 36.5444 9.96825 37.208V39.4065H11.0712ZM25.9821 35.4244H24.3521V34.2215H23.3452V35.4244H22.4343V36.2124H23.345V38.0377C23.345 38.9504 23.7766 39.4895 24.9274 39.4895C25.3589 39.4895 25.8381 39.3652 26.174 39.1992L25.8862 38.4525C25.5985 38.6184 25.2631 38.66 25.0233 38.66C24.5438 38.66 24.3521 38.4111 24.3521 37.9961V36.2124H25.9821V35.4244ZM34.5165 35.3413C33.9412 35.3413 33.5577 35.5903 33.3179 35.9221V35.4244H32.3111V39.4065H33.3179V37.1666C33.3179 36.503 33.6534 36.1296 34.2767 36.1296C34.4685 36.1296 34.7083 36.1712 34.9001 36.2126L35.1877 35.3831C34.9959 35.3415 34.7083 35.3415 34.5165 35.3415V35.3413ZM21.6192 35.7562C21.1395 35.4658 20.4684 35.3415 19.7492 35.3415C18.5986 35.3415 17.8316 35.8392 17.8316 36.6273C17.8316 37.2911 18.4068 37.6643 19.4137 37.7889L19.8931 37.8304C20.4205 37.9132 20.7082 38.0377 20.7082 38.2452C20.7082 38.5354 20.3247 38.7429 19.6533 38.7429C18.9821 38.7429 18.4547 38.5354 18.119 38.3281L17.6396 38.9918C18.167 39.3236 18.8862 39.4895 19.6052 39.4895C20.9478 39.4895 21.715 38.9504 21.715 38.2036C21.715 37.4984 21.0917 37.1251 20.1327 37.0007L19.6533 36.9591C19.2217 36.9176 18.8862 36.8348 18.8862 36.586C18.8862 36.2955 19.2217 36.1296 19.7492 36.1296C20.3247 36.1296 20.8999 36.3369 21.1876 36.4614L21.6192 35.7562ZM48.3729 35.3415C47.7974 35.3415 47.4139 35.5903 47.1741 35.9221V35.4244H46.1672V39.4065H47.1741V37.1666C47.1741 36.503 47.5098 36.1296 48.1329 36.1296C48.3249 36.1296 48.5647 36.1712 48.7564 36.2126L49.0441 35.3831C48.8523 35.3415 48.5647 35.3415 48.3729 35.3415ZM35.5234 37.4155C35.5234 38.6184 36.4822 39.4895 37.9687 39.4895C38.6398 39.4895 39.1192 39.3651 39.5986 39.0333L39.1192 38.3281C38.7357 38.577 38.3522 38.7013 37.9206 38.7013C37.1055 38.7013 36.5302 38.2036 36.5302 37.4155C36.5302 36.6689 37.1055 36.171 37.9206 36.1296C38.3522 36.1296 38.7357 36.254 39.1192 36.503L39.5986 35.7978C39.1192 35.4658 38.6398 35.3415 37.9687 35.3415C36.4822 35.3415 35.5234 36.2126 35.5234 37.4155ZM44.8249 37.4155V35.4244H43.818V35.9221C43.4823 35.549 43.0029 35.3415 42.3796 35.3415C41.0851 35.3415 40.0783 36.2126 40.0783 37.4155C40.0783 38.6184 41.0851 39.4895 42.3796 39.4895C43.0508 39.4895 43.5304 39.2822 43.818 38.9088V39.4065H44.8249V37.4155ZM41.1329 37.4155C41.1329 36.7103 41.6604 36.1296 42.5233 36.1296C43.3384 36.1296 43.9139 36.6689 43.9139 37.4155C43.9139 38.1207 43.3384 38.7013 42.5233 38.7013C41.6604 38.6598 41.1329 38.1207 41.1329 37.4155ZM29.0987 35.3415C27.7562 35.3415 26.7972 36.171 26.7972 37.4155C26.7972 38.66 27.756 39.4895 29.1466 39.4895C29.8177 39.4895 30.4891 39.3236 31.0166 38.9504L30.5369 38.3281C30.1534 38.577 29.674 38.7429 29.1946 38.7429C28.5713 38.7429 27.9479 38.4941 27.804 37.7887H31.2083V37.4571C31.2564 36.171 30.3932 35.3415 29.0985 35.3415H29.0987ZM29.0987 36.0881C29.7218 36.0881 30.1536 36.42 30.2493 37.0423H27.8521C27.9479 36.503 28.3795 36.0881 29.0987 36.0881ZM54.0784 37.4155V33.8481H53.0715V35.9221C52.7358 35.549 52.2564 35.3415 51.6331 35.3415C50.3386 35.3415 49.3317 36.2126 49.3317 37.4155C49.3317 38.6184 50.3386 39.4895 51.6331 39.4895C52.3045 39.4895 52.7839 39.2822 53.0715 38.9088V39.4065H54.0784V37.4155ZM50.3866 37.4155C50.3866 36.7103 50.9139 36.1296 51.777 36.1296C52.5921 36.1296 53.1674 36.6689 53.1674 37.4155C53.1674 38.1207 52.5921 38.7013 51.777 38.7013C50.9139 38.6598 50.3866 38.1207 50.3866 37.4155ZM16.7286 37.4155V35.4244H15.7217V35.9221C15.386 35.549 14.9066 35.3415 14.2833 35.3415C12.9888 35.3415 11.982 36.2126 11.982 37.4155C11.982 38.6184 12.9888 39.4895 14.2833 39.4895C14.9547 39.4895 15.4341 39.2822 15.7217 38.9088V39.4065H16.7286V37.4155ZM12.9888 37.4155C12.9888 36.7103 13.5163 36.1296 14.3792 36.1296C15.1943 36.1296 15.7698 36.6689 15.7698 37.4155C15.7698 38.1207 15.1943 38.7013 14.3792 38.7013C13.5163 38.6598 12.9888 38.1207 12.9888 37.4155Z" fill="white"/>
<path d="M22.2412 15.8502C22.2412 11.0799 24.8302 6.84876 28.8096 4.11095C25.8851 2.1199 22.1934 0.916992 18.166 0.916992C8.62443 0.916992 0.905273 7.59533 0.905273 15.8502C0.905273 24.1048 8.62443 30.7833 18.1658 30.7833C22.1932 30.7833 25.8849 29.5804 28.8096 27.5892C24.8302 24.8929 22.2412 20.6204 22.2412 15.8502Z" fill="#EB001B"/>
<path d="M56.7617 15.8502C56.7617 24.1048 49.0426 30.7833 39.5013 30.7833C35.4738 30.7833 31.7821 29.5804 28.8574 27.5892C32.8848 24.8515 35.426 20.6204 35.426 15.8502C35.426 11.0799 32.8368 6.84876 28.8574 4.11095C31.7819 2.1199 35.4738 0.916992 39.5013 0.916992C49.0426 0.916992 56.762 7.6369 56.762 15.8502H56.7617Z" fill="#F79E1B"/>
</svg>
